<svg xmlns="http://www.w3.org/2000/svg" viewBox="0 0 200 200" width="200" height="200">
  <!-- Bespoke vector pet: a fluffy chick for the Pet World avatar. -->
  <defs><radialGradient id="chkb" cx="50%" cy="36%" r="72%"><stop offset="0%" stop-color="#ffe96a"/><stop offset="100%" stop-color="#ffc733"/></radialGradient></defs>
  <ellipse cx="100" cy="130" rx="48" ry="44" fill="url(#chkb)" stroke="#e0a800" stroke-width="4"/>
  <path d="M52 116 q-16 14 -12 38 q16 -6 22 -22 z" fill="#ffd84a"/>
  <path d="M148 116 q16 14 12 38 q-16 -6 -22 -22 z" fill="#ffd84a"/>
  <circle cx="100" cy="86" r="44" fill="url(#chkb)" stroke="#e0a800" stroke-width="4"/>
  <path d="M100 44 v-12 M88 48 l-6 -10 M112 48 l6 -10" stroke="#e0a800" stroke-width="3" fill="none" stroke-linecap="round"/>
  <circle cx="74" cy="96" r="8" fill="#ff9d9d" opacity=".45"/>
  <circle cx="126" cy="96" r="8" fill="#ff9d9d" opacity=".45"/>
  <circle cx="86" cy="82" r="8" fill="#2d2233"/>
  <circle cx="114" cy="82" r="8" fill="#2d2233"/>
  <circle cx="88" cy="79" r="3" fill="#fff"/><circle cx="116" cy="79" r="3" fill="#fff"/>
  <path d="M91 94 h18 l-9 9 z" fill="#ff9f1c" stroke="#e08a00" stroke-width="1.5"/>
  <path d="M84 176 l-6 8 m6 -8 l0 9 m0 -9 l6 8 M116 176 l-6 8 m6 -8 l0 9 m0 -9 l6 8" stroke="#ff9f1c" stroke-width="3" fill="none" stroke-linecap="round"/>
</svg>
