<svg xmlns="http://www.w3.org/2000/svg" viewBox="0 0 200 200" width="200" height="200">
  <!-- Bespoke vector pet: a friendly baby dragon for the Pet World avatar. -->
  <defs><radialGradient id="drgb" cx="50%" cy="38%" r="70%"><stop offset="0%" stop-color="#86d77f"/><stop offset="100%" stop-color="#57b85c"/></radialGradient></defs>
  <!-- wings -->
  <path d="M52 120 q-34 -18 -40 6 q22 -4 30 12 q-6 -14 10 -18 z" fill="#9be08f" stroke="#3f9d4e" stroke-width="3"/>
  <path d="M148 120 q34 -18 40 6 q-22 -4 -30 12 q6 -14 -10 -18 z" fill="#9be08f" stroke="#3f9d4e" stroke-width="3"/>
  <!-- tail -->
  <path d="M150 152 q36 2 34 -32 q-12 14 -24 8 q10 14 -10 24 z" fill="#57b85c" stroke="#3f9d4e" stroke-width="3"/>
  <!-- horns -->
  <path d="M78 50 l-8 -22 l16 14 Z" fill="#ffe08a" stroke="#e0b94a" stroke-width="2"/>
  <path d="M122 50 l8 -22 l-16 14 Z" fill="#ffe08a" stroke="#e0b94a" stroke-width="2"/>
  <!-- body + belly -->
  <ellipse cx="100" cy="142" rx="44" ry="38" fill="url(#drgb)" stroke="#3f9d4e" stroke-width="4"/>
  <ellipse cx="100" cy="150" rx="26" ry="24" fill="#dff7d2"/>
  <!-- head -->
  <circle cx="100" cy="90" r="46" fill="url(#drgb)" stroke="#3f9d4e" stroke-width="4"/>
  <!-- spikes -->
  <path d="M100 44 l-7 -12 l14 0 z M86 48 l-6 -10 l12 0 z M114 48 l6 -10 l-12 0 z" fill="#3f9d4e"/>
  <!-- snout -->
  <ellipse cx="100" cy="104" rx="24" ry="18" fill="#dff7d2"/>
  <circle cx="92" cy="106" r="2.6" fill="#2d2233"/><circle cx="108" cy="106" r="2.6" fill="#2d2233"/>
  <circle cx="82" cy="84" r="9" fill="#2d2233"/>
  <circle cx="118" cy="84" r="9" fill="#2d2233"/>
  <circle cx="85" cy="80" r="3.4" fill="#fff"/><circle cx="121" cy="80" r="3.4" fill="#fff"/>
  <circle cx="72" cy="98" r="8" fill="#ff9d9d" opacity=".4"/>
  <circle cx="128" cy="98" r="8" fill="#ff9d9d" opacity=".4"/>
  <path d="M88 114 q12 8 24 0" stroke="#3f9d4e" stroke-width="3" fill="none" stroke-linecap="round"/>
  <ellipse cx="80" cy="176" rx="13" ry="9" fill="#dff7d2" stroke="#3f9d4e" stroke-width="3"/>
  <ellipse cx="120" cy="176" rx="13" ry="9" fill="#dff7d2" stroke="#3f9d4e" stroke-width="3"/>
</svg>
