<svg xmlns="http://www.w3.org/2000/svg" viewBox="0 0 200 200" width="200" height="200">
  <!-- Bespoke vector pet: a tuxedo penguin for the Pet World avatar. -->
  <ellipse cx="84" cy="182" rx="12" ry="7" fill="#ffae34" stroke="#e08a00" stroke-width="2"/>
  <ellipse cx="116" cy="182" rx="12" ry="7" fill="#ffae34" stroke="#e08a00" stroke-width="2"/>
  <ellipse cx="100" cy="118" rx="52" ry="62" fill="#2f3a4a" stroke="#1f2733" stroke-width="4"/>
  <ellipse cx="100" cy="126" rx="33" ry="48" fill="#fdfdfb"/>
  <path d="M50 96 q-14 30 4 60 q8 -4 8 -16 q-8 -22 -2 -44 z" fill="#26303d"/>
  <path d="M150 96 q14 30 -4 60 q-8 -4 -8 -16 q8 -22 2 -44 z" fill="#26303d"/>
  <circle cx="74" cy="104" r="7" fill="#ff9d9d" opacity=".4"/>
  <circle cx="126" cy="104" r="7" fill="#ff9d9d" opacity=".4"/>
  <circle cx="86" cy="90" r="8" fill="#fff"/><circle cx="114" cy="90" r="8" fill="#fff"/>
  <circle cx="87" cy="91" r="4" fill="#2d2233"/><circle cx="113" cy="91" r="4" fill="#2d2233"/>
  <path d="M92 102 h16 l-8 9 z" fill="#ffae34" stroke="#e08a00" stroke-width="1.5"/>
</svg>
