<svg xmlns="http://www.w3.org/2000/svg" viewBox="0 0 200 200" width="200" height="200">
  <!-- Bespoke vector pet: a happy tan puppy for the Pet World avatar. -->
  <defs><radialGradient id="dogb" cx="50%" cy="38%" r="70%"><stop offset="0%" stop-color="#eeb878"/><stop offset="100%" stop-color="#d99a52"/></radialGradient></defs>
  <path d="M150 150 q34 4 30 -30 q-2 -14 -16 -10 q10 6 4 20 q-6 16 -24 14 z" fill="#c98f54" stroke="#a06f3c" stroke-width="3"/>
  <ellipse cx="58" cy="94" rx="16" ry="30" fill="#b9824a" stroke="#9a6a3a" stroke-width="3" transform="rotate(-14 58 94)"/>
  <ellipse cx="142" cy="94" rx="16" ry="30" fill="#b9824a" stroke="#9a6a3a" stroke-width="3" transform="rotate(14 142 94)"/>
  <ellipse cx="100" cy="140" rx="44" ry="38" fill="url(#dogb)" stroke="#b9824a" stroke-width="4"/>
  <ellipse cx="100" cy="152" rx="28" ry="22" fill="#fbe7d2"/>
  <circle cx="100" cy="88" r="48" fill="url(#dogb)" stroke="#b9824a" stroke-width="4"/>
  <ellipse cx="100" cy="104" rx="26" ry="20" fill="#fbe7d2"/>
  <circle cx="72" cy="94" r="9" fill="#ff9d9d" opacity=".4"/>
  <circle cx="128" cy="94" r="9" fill="#ff9d9d" opacity=".4"/>
  <circle cx="82" cy="80" r="8" fill="#2d2233"/>
  <circle cx="118" cy="80" r="8" fill="#2d2233"/>
  <circle cx="84" cy="77" r="3" fill="#fff"/><circle cx="120" cy="77" r="3" fill="#fff"/>
  <ellipse cx="100" cy="98" rx="8" ry="6" fill="#2d2233"/>
  <path d="M100 104 v8 M100 112 q-8 6 -14 2 M100 112 q8 6 14 2" stroke="#a06f3c" stroke-width="3" fill="none" stroke-linecap="round"/>
  <ellipse cx="100" cy="117" rx="6" ry="8" fill="#ff7a9c"/>
  <ellipse cx="80" cy="176" rx="13" ry="9" fill="#fbe7d2" stroke="#b9824a" stroke-width="3"/>
  <ellipse cx="120" cy="176" rx="13" ry="9" fill="#fbe7d2" stroke="#b9824a" stroke-width="3"/>
</svg>
