<svg xmlns="http://www.w3.org/2000/svg" viewBox="0 0 200 200" width="200" height="200">
  <!-- Bespoke vector pet: a cheerful rocket for the Pet World avatar. -->
  <path d="M100 168 q-14 22 0 32 q14 -10 0 -32 z" fill="#ff9f1c"/>
  <path d="M100 172 q-7 14 0 22 q7 -8 0 -22 z" fill="#ffd23f"/>
  <path d="M100 22 q36 28 36 80 q0 34 -36 58 q-36 -24 -36 -58 q0 -52 36 -80 z" fill="#f1f4f9" stroke="#c2cbd8" stroke-width="4"/>
  <path d="M100 22 q24 20 28 46 h-56 q4 -26 28 -46 z" fill="#ff6b6b"/>
  <path d="M64 122 q-20 14 -18 42 q18 -6 26 -24 z" fill="#ff6b6b" stroke="#d63a3a" stroke-width="3"/>
  <path d="M136 122 q20 14 18 42 q-18 -6 -26 -24 z" fill="#ff6b6b" stroke="#d63a3a" stroke-width="3"/>
  <circle cx="100" cy="98" r="26" fill="#8fd6ff" stroke="#4d96ff" stroke-width="4"/>
  <circle cx="84" cy="102" r="5" fill="#ff9d9d" opacity=".5"/>
  <circle cx="116" cy="102" r="5" fill="#ff9d9d" opacity=".5"/>
  <circle cx="92" cy="94" r="5" fill="#2d2233"/><circle cx="108" cy="94" r="5" fill="#2d2233"/>
  <circle cx="93" cy="92" r="2" fill="#fff"/><circle cx="109" cy="92" r="2" fill="#fff"/>
  <path d="M91 104 q9 7 18 0" stroke="#2d2233" stroke-width="3" fill="none" stroke-linecap="round"/>
</svg>
